<?xml version="1.0" encoding="UTF-8" standalone="no"?>
<svg
   xmlns:dc="http://purl.org/dc/elements/1.1/"
   xmlns:cc="http://creativecommons.org/ns#"
   xmlns:rdf="http://www.w3.org/1999/02/22-rdf-syntax-ns#"
   xmlns:svg="http://www.w3.org/2000/svg"
   xmlns="http://www.w3.org/2000/svg"
   xmlns:sodipodi="http://sodipodi.sourceforge.net/DTD/sodipodi-0.dtd"
   xmlns:inkscape="http://www.inkscape.org/namespaces/inkscape"
   version="1.1"
   id="Layer_1"
   width="695px"
   height="185px"
   viewBox="-3.5 -3.5 695 185"
   enable-background="new -3.5 -3.5 695 185"
   xml:space="preserve"
   inkscape:version="0.48.5 r10040"
   sodipodi:docname="AngularJS_logo.svg"><metadata
     id="metadata66"><rdf:RDF><cc:Work
         rdf:about=""><dc:format>image/svg+xml</dc:format><dc:type
           rdf:resource="http://purl.org/dc/dcmitype/StillImage" /><dc:title></dc:title></cc:Work></rdf:RDF></metadata><defs
     id="defs64" /><sodipodi:namedview
     pagecolor="#ffffff"
     bordercolor="#666666"
     borderopacity="1"
     objecttolerance="10"
     gridtolerance="10"
     guidetolerance="10"
     inkscape:pageopacity="0"
     inkscape:pageshadow="2"
     inkscape:window-width="1493"
     inkscape:window-height="1044"
     id="namedview62"
     showgrid="false"
     showguides="true"
     inkscape:guide-bbox="true"
     inkscape:zoom="7.5510791"
     inkscape:cx="64.628343"
     inkscape:cy="94.808362"
     inkscape:window-x="0"
     inkscape:window-y="0"
     inkscape:window-maximized="0"
     inkscape:current-layer="Layer_1" /><filter
     id="googleDropShadow"><feOffset
       result="offOut"
       in="SourceGraphic"
       dx="0.3"
       dy="0.5"
       id="feOffset4" /><feGaussianBlur
       stdDeviation="0.25"
       result="blurOut"
       in="offOut"
       id="feGaussianBlur6" /><feColorMatrix
       type="matrix"
       result="blurTransOut"
       in="blurOut"
       values="1 0 0 0 0 0 1 0 0 0 0 0 1 0 0 0 0 0 .8 0"
       id="feColorMatrix8" /><feBlend
       in="SourceGraphic"
       mode="normal"
       in2="blurTransOut"
       id="feBlend10" /></filter><g
     id="g48"><polygon
       points="83.243,0.875 0.554,29.975 13.621,138.311 83.331,176.625 153.4,137.792 166.462,29.46  "
       id="polygon50"
       fill="#B3B3B3" /><polygon
       points="158.214,35.721 83.05,10.089 83.05,167.471 146.041,132.609  "
       id="polygon52"
       fill="#A6120D" /><polygon
       points="9.833,36.183 21.03,133.072 83.049,167.471 83.049,10.086  "
       id="polygon54"
       fill="#DD1B16" /><path
       d="M103.74,93.871l-20.69,9.675H61.243l-10.251,25.64l-19.067,0.353L83.05,15.804L103.74,93.871z M101.74,89   L83.187,52.271L67.969,88.368h15.08L101.74,89z"
       id="path56"
       fill="#F2F2F2" /><polygon
       points="83.049,15.804 83.186,52.271 100.454,88.396 83.088,88.396 83.049,103.523 107.062,103.546    118.285,129.543 136.529,129.881  "
       id="polygon58"
       fill="#B3B3B3" /></g><flowRoot
     xml:space="preserve"
     id="flowRoot3107"
     style="fill:black;stroke:none;stroke-opacity:1;stroke-width:1px;stroke-linejoin:miter;stroke-linecap:butt;fill-opacity:1;font-family:Sans;font-style:normal;font-weight:normal;font-size:40px;line-height:125%;letter-spacing:0px;word-spacing:0px"><flowRegion
       id="flowRegion3109"><rect
         id="rect3111"
         width="104.88567"
         height="114.15587"
         x="35.491615"
         y="19.195885" /></flowRegion><flowPara
       id="flowPara3113"></flowPara></flowRoot><g
     transform="matrix(1.0577063,0,0,1,4.752022,-31.5)"
     style="font-size:40px;font-style:normal;font-weight:normal;line-height:125%;letter-spacing:0px;word-spacing:0px;fill:#b3b3b3;fill-opacity:1;stroke:none;font-family:Sans"
     id="flowRoot3161"><path
       style="font-size:120px;fill:#b3b3b3;fill-opacity:1"
       d="m 101.66797,143.02348 -10.898439,0 0,-6.91406 c -2.890677,3.04687 -5.664112,5.17578 -8.320312,6.38671 -2.617232,1.17188 -5.610404,1.74822 -8.496094,1.75782 -2.683429,0.009 -5.566439,-0.52735 -7.910156,-1.58203 -2.343778,-1.05469 -5.156275,-3.14453 -8.4375,-6.26954 l 0,30.76172 -11.015625,0 0,-89.58984 11.015625,0 0,49.10156 c 1.249977,1.52345 3.417943,3.08595 6.503906,4.6875 3.085906,1.60157 6.406215,2.40236 9.960937,2.40235 3.632771,1e-5 6.777299,-0.64453 9.433594,-1.9336 2.6562,-1.32811 5.03901,-3.16405 7.148438,-5.50781 l 0,-48.75 11.015626,0 0,65.44922"
       id="path3170"
       inkscape:connector-curvature="0"
       sodipodi:nodetypes="cccccscccccccsccccc" /></g></svg>